<svg xmlns="http://www.w3.org/2000/svg" width="64" height="64" viewBox="0 0 64 64" fill="none">
	<defs>
		<linearGradient id="bg" x1="10" y1="6" x2="54" y2="58" gradientUnits="userSpaceOnUse">
			<stop stop-color="#0D6668"/>
			<stop offset="1" stop-color="#004242"/>
		</linearGradient>
		<linearGradient id="glow" x1="19" y1="17" x2="45" y2="45" gradientUnits="userSpaceOnUse">
			<stop stop-color="#A8EFEF"/>
			<stop offset="1" stop-color="#8FF6D0"/>
		</linearGradient>
	</defs>
	<rect x="4" y="4" width="56" height="56" rx="18" fill="url(#bg)"/>
	<circle cx="32" cy="32" r="16" fill="url(#glow)" opacity="0.22"/>
	<path d="M17 35.5c3.7-8.7 7.55-13.05 11.55-13.05 4.25 0 7.85 2.95 10.8 8.85 1.85 3.65 3.85 5.5 6 5.5" stroke="#F6FFFE" stroke-width="4" stroke-linecap="round" stroke-linejoin="round"/>
	<circle cx="17.75" cy="35.5" r="3.75" fill="#8FF6D0"/>
	<circle cx="45.35" cy="36" r="3.75" fill="#BAEBF5"/>
	<path d="M30 17.5c0.55 1.85 1.65 2.95 3.3 3.3-1.65 0.45-2.75 1.55-3.3 3.3-0.45-1.75-1.55-2.85-3.3-3.3 1.75-0.35 2.85-1.45 3.3-3.3Z" fill="#E8FFFB" opacity="0.92"/>
</svg>